<?xml version="1.0" standalone="no"?><!DOCTYPE svg PUBLIC "-//W3C//DTD SVG 1.1//EN" "http://www.w3.org/Graphics/SVG/1.1/DTD/svg11.dtd"><svg t="1617270742028" class="icon" viewBox="0 0 1024 1024" version="1.1" xmlns="http://www.w3.org/2000/svg" p-id="3312" xmlns:xlink="http://www.w3.org/1999/xlink" width="64" height="64"><defs><style type="text/css"></style></defs><path d="M55.86 685.002l0.006 0.992c0.53 32.68 27.186 59.008 59.992 59.008h97.75l234.784 183.734a90 90 0 0 0 55.466 19.122c49.706 0 90-40.294 90-90V168.146a90 90 0 0 0-19.122-55.466l-0.928-1.166c-30.836-38.114-86.664-44.572-125.416-14.246l-229.67 179.736-102.864-0.002c-33.136 0-60 26.862-60 60v348z m60 0v-348h113.206a30 30 0 0 0 18.49-6.374L485.37 144.52c13.048-10.212 31.902-7.912 42.114 5.136a30 30 0 0 1 6.374 18.49v689.712c0 16.57-13.43 30-30 30a30 30 0 0 1-18.488-6.374l-242.926-190.108a30 30 0 0 0-18.49-6.374H115.86z" fill="#1296db" p-id="3313"></path><path d="M735.022 457.5l-60.6 46.814 35.872 45.308 42.76-31.694 50.212 51.018c10.624 10.436 27.584 10.894 38.804 1.118l0.56-0.504 74.464-54.23c0.676-0.492 1.33-1.014 1.96-1.566 11.706-10.236 12.876-28.004 2.616-39.684l-0.494-0.548c-10.952-11.908-29.184-13.732-42.304-4.12l-54.148 39.664-49.68-50.48c-10.638-10.988-27.974-11.62-39.374-1.678l-0.648 0.582z" fill="#1296db" p-id="3314"></path><path d="M867.726 184.208c13.14-10.092 31.974-7.62 42.066 5.52 9.95 12.954 7.688 31.442-4.97 41.632l-0.548 0.432-186 142.86c-13.14 10.092-31.974 7.62-42.066-5.52-9.95-12.954-7.688-31.444 4.97-41.634l0.548-0.43 186-142.86zM718.274 650.208c-13.14-10.092-31.974-7.62-42.066 5.52-9.95 12.954-7.688 31.442 4.97 41.632l0.548 0.432 186 142.86c13.14 10.092 31.974 7.62 42.066-5.52 9.95-12.954 7.688-31.444-4.97-41.634l-0.548-0.43-186-142.86z" fill="#1296db" p-id="3315"></path></svg>