<?xml version="1.0" standalone="no"?><!DOCTYPE svg PUBLIC "-//W3C//DTD SVG 1.1//EN" "http://www.w3.org/Graphics/SVG/1.1/DTD/svg11.dtd"><svg t="1617270597761" class="icon" viewBox="0 0 1024 1024" version="1.1" xmlns="http://www.w3.org/2000/svg" p-id="1789" width="64" height="64" xmlns:xlink="http://www.w3.org/1999/xlink"><defs><style type="text/css"></style></defs><path d="M132 256a76 76 0 1 0 0-152 76 76 0 0 0 0 152z m0-32a44 44 0 1 1 0-88 44 44 0 0 1 0 88zM356 296a76 76 0 1 0 0-152 76 76 0 0 0 0 152z m0-32a44 44 0 1 1 0-88 44 44 0 0 1 0 88zM248 520c48.6 0 88-39.4 88-88s-39.4-88-88-88-88 39.4-88 88 39.4 88 88 88z m0-32a56 56 0 1 1 0-112 56 56 0 0 1 0 112zM688 288c48.6 0 88-39.4 88-88s-39.4-88-88-88-88 39.4-88 88 39.4 88 88 88z m0-32a56 56 0 1 1 0-112 56 56 0 0 1 0 112zM528 464a56 56 0 1 0 0-112 56 56 0 0 0 0 112z m0-32a24 24 0 1 1 0-48 24 24 0 0 1 0 48z" p-id="1790" fill="#1296db"></path><path d="M888 328a56 56 0 1 0 0-112 56 56 0 0 0 0 112z m0-32a24 24 0 1 1 0-48 24 24 0 0 1 0 48z" p-id="1791" fill="#1296db"></path><path d="M788 552a68 68 0 1 0 0-136 68 68 0 0 0 0 136z m0-32a36 36 0 1 1 0-72 36 36 0 0 1 0 72zM98.88 689.416c133.632-97.968 266.216-110.536 401.88-38.648 152.128 80.6 293.48 72.08 419.512-25.984a24 24 0 1 0-29.48-37.88C780.088 673.04 659.088 680.336 523.24 608.352 370.936 527.656 218.64 542.088 70.504 650.704a24 24 0 0 0 28.384 38.72zM112 747.824h80.88c47.192 0 70.784 19.952 70.784 59.84 0 40.264-23.776 60.4-71.328 60.4h-48.368v74.88H112v-195.12z m31.968 27.328v65.584h46.456c14.032 0 24.416-2.552 31.152-7.648 6.56-5.28 9.84-13.76 9.84-25.416 0-11.48-3.368-19.76-10.112-24.872-6.376-5.096-16.664-7.648-30.88-7.648h-46.456z m147.024-27.328h37.44l66.4 153.032h1.088l66.128-153.032h37.44v195.12H467.52V808.48h-1.096l-57.384 134.448h-27.6l-57.384-134.448h-1.096v134.448h-31.968V747.824zM603.6 744c18.952 0 34.528 5.464 46.728 16.4 12.024 10.928 18.04 25.04 18.04 42.352 0 16.576-6.376 31.968-19.128 46.184-7.104 7.648-20.584 18.128-40.448 31.424-19.856 13.12-31.968 24.592-36.344 34.432H668.64v28.144H532.56c0-20.04 6.464-37.344 19.392-51.92 7.112-8.2 22.048-20.128 44.816-35.8 11.84-8.192 20.768-15.48 26.784-21.856 8.56-9.656 12.84-19.952 12.84-30.88 0-10.568-2.824-18.496-8.472-23.776-5.648-5.104-14.112-7.648-25.408-7.648-12.024 0-21.04 4.096-27.056 12.296-6.008 7.648-9.288 19.216-9.84 34.704h-31.968c0.36-21.864 6.736-39.44 19.12-52.744C565.72 751.104 582.664 744 603.6 744z m116.416 157.68c6.192 0 11.296 1.904 15.304 5.736 4 4 6.008 8.92 6.008 14.752 0 6.192-2.096 11.2-6.288 15.032-4 3.824-9.016 5.736-15.024 5.736-5.648 0-10.656-2-15.032-6.008-4.008-3.832-6.008-8.744-6.008-14.76 0-6.008 2-10.928 6.008-14.752a21.52 21.52 0 0 1 15.032-5.744z m62.848-153.856h118.872v28.144h-93.184l-5.464 53.56h0.816a54.4 54.4 0 0 1 20.768-13.12c7.104-2.72 15.032-4.088 23.776-4.088 18.4 0 33.336 6.008 44.816 18.032 11.656 12.208 17.488 28.784 17.488 49.736 0 20.04-7.648 36.52-22.96 49.456-14.208 11.48-30.96 17.216-50.272 17.216-17.68 0-32.88-4.824-45.64-14.48-14.024-10.56-21.768-24.96-23.224-43.176h31.424c1.456 10.744 5.648 18.672 12.568 23.776 6.2 4.552 14.576 6.832 25.144 6.832 11.656 0 21.408-3.552 29.24-10.664 7.832-7.28 11.752-16.848 11.752-28.688 0-12.936-3.376-23.232-10.112-30.88-6.376-7.472-16.032-11.2-28.968-11.2-8.744 0-16.032 1.456-21.864 4.368a36.048 36.048 0 0 0-15.84 15.032h-29.792l10.656-109.856z" p-id="1792" fill="#1296db"></path></svg>